<svg width="496" height="81" viewBox="0 0 496 81" fill="none" xmlns="http://www.w3.org/2000/svg">
<path d="M460 67H471.985C477.472 67 481.878 62.4735 481.731 56.9882V56.9882C481.589 51.7073 477.267 47.5 471.985 47.5H470.738H468.75C463.918 47.5 460 43.5825 460 38.75V38.75V38.75C460 33.9175 463.918 30 468.75 30H481.476" stroke="black" stroke-width="2"/>
<path d="M421 47.7397H451V45C451 36.7157 444.284 30 436 30V30C427.716 30 421 36.7157 421 45V52C421 60.2843 427.716 67 436 67H446.424" stroke="black" stroke-width="2"/>
<path d="M413 30.5H402C393.716 30.5 387 37.2157 387 45.5V52C387 60.2843 393.716 67 402 67H413" stroke="black" stroke-width="2"/>
<path d="M360.5 68V30V37.589V37.589C360.5 33.95 363.45 31 367.089 31H370.5H380" stroke="black" stroke-width="2"/>
<path d="M322 30V55C322 61.6274 327.373 67 334 67H348V30" stroke="black" stroke-width="2"/>
<path d="M311 44.5V52.5C311 60.5081 304.508 67 296.5 67C288.492 67 282 60.5081 282 52.5V44.5C282 36.4919 288.492 30 296.5 30C304.508 30 311 36.4919 311 44.5Z" stroke="black" stroke-width="2"/>
<path d="M252 67H263.985C269.472 67 273.878 62.4735 273.731 56.9882V56.9882C273.589 51.7073 269.267 47.5 263.985 47.5H262.738H260.75C255.918 47.5 252 43.5825 252 38.75V38.75V38.75C252 33.9175 255.918 30 260.75 30H273.476" stroke="black" stroke-width="2"/>
<path d="M213 47.7397H243V45C243 36.7157 236.284 30 228 30V30C219.716 30 213 36.7157 213 45V52C213 60.2843 219.716 67 228 67H238.424" stroke="black" stroke-width="2"/>
<path d="M171 68V46.7961M195 46.7961V46.7961C200.247 46.7961 204.5 42.5428 204.5 37.2961V29C204.5 21.8203 198.68 16 191.5 16H171V46.7961M195 46.7961L206.5 68M195 46.7961H171" stroke="black" stroke-width="2"/>
<circle cx="130" cy="49" r="3" fill="black"/>
<path d="M138.39 49H148V48C148 38.0589 139.941 30 130 30H129V30C119.059 30 111 38.0589 111 48V49V49C111 58.9411 119.059 67 129 67H133.5" stroke="#359CD0" stroke-width="4"/>
<path d="M77 68V30H91C97.6274 30 103 35.3726 103 42V68" stroke="black" stroke-width="2"/>
<circle cx="40" cy="43" r="4" fill="black"/>
<circle cx="40" cy="43" r="28.5" stroke="#359CD0" stroke-width="5"/>
</svg>
